<!-- icon666.com - MILLIONS OF FREE VECTOR ICONS --><svg clip-rule="evenodd" fill-rule="evenodd" stroke-linejoin="round" stroke-miterlimit="2" viewBox="0 0 67 67" xmlns="http://www.w3.org/2000/svg"><path d="m25.389 4.92c.298-.769.114-1.643-.469-2.226-.584-.584-1.457-.768-2.227-.47-12.054 4.677-20.61 16.394-20.61 30.093 0 17.808 14.458 32.266 32.267 32.266 13.699 0 25.416-8.556 30.092-20.609.299-.77.115-1.643-.469-2.227s-1.457-.768-2.227-.469c-3.149 1.222-6.572 1.891-10.149 1.891-15.509 0-28.1-12.591-28.1-28.099 0-3.578.67-7 1.892-10.15z"></path></svg>